<svg height="512" viewBox="0 0 64 64" width="512" xmlns="http://www.w3.org/2000/svg"><g id="Certification-2" data-name="Certification"><path d="m61 56v4h-44a14 14 0 0 1 0-28h44v4h-44a10 10 0 0 0 0 20z" fill="#ff7956"/><path d="m59 12c1.1 0 2 3.58 2 8s-.9 8-2 8a.34.34 0 0 1 -.1-.01c-1.06-.21-1.9-3.71-1.9-7.99s.84-7.78 1.9-7.99a.34.34 0 0 1 .1-.01z" fill="#c0ab91"/><path d="m59 36v20h-42a10 10 0 0 1 0-20z" fill="#fee9ab"/><path d="m37.98 13.56 20.92-1.55c-1.06.21-1.9 3.71-1.9 7.99h-23v-6c.74.74 2.26.51 3.98-.44z" fill="#fee9ab"/><path d="m58.9 27.99-24.9-1.84v-6.15h23c0 4.28.84 7.78 1.9 7.99z" fill="#ffde55"/><g fill="#9cdd05"><path d="m43.9 4.1c1.17 1.17-.1 4.34-2.83 7.07a14.243 14.243 0 0 1 -3.09 2.39c-1.72.95-3.24 1.18-3.98.44-1.17-1.17.09-4.34 2.83-7.07s5.9-4 7.07-2.83z"/><path d="m34 20v6.15l-2-.15s-.75.06-2 .15v-6.15z"/><path d="m30 14h4v6h-4z"/><path d="m27.17 6.93c2.74 2.73 4 5.9 2.83 7.07-.74.74-2.26.51-3.98-.44a14.243 14.243 0 0 1 -3.09-2.39c-2.73-2.73-4-5.9-2.83-7.07s4.34.1 7.07 2.83z"/></g><path d="m30 20v6.15c-5.98.44-23.42 1.74-24.9 1.84 1.06-.21 1.9-3.71 1.9-7.99z" fill="#ffde55"/><path d="m30 14v6h-23c0-4.28-.84-7.78-1.9-7.99 1.22.09 13.38.99 20.92 1.55 1.72.95 3.24 1.18 3.98.44z" fill="#fee9ab"/><path d="m5.1 12.01c1.06.21 1.9 3.71 1.9 7.99s-.84 7.78-1.9 7.99a.673.673 0 0 1 -.1.01c-1.1 0-2-3.58-2-8s.9-8 2-8a.673.673 0 0 1 .1.01z" fill="#c0ab91"/><path d="m10 45h46v2h-46z"/><path d="m14 41h38v2h-38z"/><path d="m14 49h38v2h-38z"/><path d="m61 31h-44a15 15 0 0 0 0 30h44a1 1 0 0 0 1-1v-4a1 1 0 0 0 -1-1h-1v-18h1a1 1 0 0 0 1-1v-4a1 1 0 0 0 -1-1zm-1 4h-43a11 11 0 0 0 0 22h43v2h-43a13 13 0 0 1 0-26h43zm-2 2v18h-41a9 9 0 0 1 0-18z"/><path d="m5 29c.051 0 .077 0 27-2l27 2c2.855 0 3-7.5 3-9s-.145-8.856-3-8.985v-.015c-.016 0-.029.007-.045.007s-.017 0-.027 0l-17.619 1.303c.156-.145.317-.278.469-.431 2.811-2.812 4.685-6.629 2.828-8.485-.5-.5-1.692-1.207-4.027-.272a13.941 13.941 0 0 0 -4.457 3.1c-2.111 2.111-3.693 4.789-3.565 6.778h-1.114c.128-1.989-1.454-4.667-3.565-6.778a13.941 13.941 0 0 0 -4.457-3.1c-2.333-.934-3.525-.23-4.027.272-1.857 1.856.017 5.673 2.828 8.485.152.152.313.285.468.43-17.615-1.309-17.632-1.309-17.69-1.309-2.855 0-3 7.5-3 9s.145 9 3 9zm30-3.78v-4.22h21.018a21.332 21.332 0 0 0 .885 5.842zm24-11.935a17.47 17.47 0 0 1 1 6.715 17.466 17.466 0 0 1 -1 6.715 17.3 17.3 0 0 1 -1-6.715 17.3 17.3 0 0 1 1-6.715zm-2.1-.129a21.306 21.306 0 0 0 -.882 5.844h-21.018v-3.587c.082.006.151.024.239.024a5.642 5.642 0 0 0 2.082-.458c.3-.12.605-.275.912-.436zm-19.364-5.52a12.119 12.119 0 0 1 3.785-2.657c1-.4 1.673-.371 1.871-.171.5.5-.2 3.024-2.828 5.657a12.122 12.122 0 0 1 -3.786 2.657c-1 .4-1.673.371-1.871.171-.498-.499.193-3.025 2.829-5.657zm-6.536 7.364h2v4h-2zm0 6h2v4.072l-.926-.072a1.044 1.044 0 0 0 -.148 0l-.926.071zm-10.192-16.192a.754.754 0 0 1 .524-.143 3.777 3.777 0 0 1 1.347.314 12.119 12.119 0 0 1 3.785 2.657c2.632 2.632 3.327 5.158 2.829 5.657-.2.2-.869.23-1.871-.171a12.122 12.122 0 0 1 -3.786-2.657c-2.636-2.633-3.327-5.159-2.828-5.657zm2.96 9.587 2 .148c.307.161.613.316.912.436a5.646 5.646 0 0 0 2.082.458c.088 0 .157-.018.239-.024v3.587h-21.019a21.339 21.339 0 0 0 -.882-5.843zm-15.786 6.605h21.018v4.22l-21.9 1.624a21.306 21.306 0 0 0 .882-5.844zm-2.982-7.715a17.3 17.3 0 0 1 1 6.715 17.3 17.3 0 0 1 -1 6.715 17.47 17.47 0 0 1 -1-6.715 17.47 17.47 0 0 1 1-6.715z"/></g></svg>